<?xml version="1.0" encoding="utf-8"?>
<!-- Generator: Adobe Illustrator 29.3.1, SVG Export Plug-In . SVG Version: 9.03 Build 55982)  -->
<svg version="1.1" id="Ebene_1" xmlns="http://www.w3.org/2000/svg" xmlns:xlink="http://www.w3.org/1999/xlink" x="0px" y="0px"
	 viewBox="0 0 1600 140" style="enable-background:new 0 0 1600 140;" xml:space="preserve">
<style type="text/css">
	.st0{fill:#1F2328;}
	.st1{fill:#FF506E;}
	.st2{fill:#FFF0F3;}
</style>
<g>
	<path class="st0" d="M702.753,23.293c1.812,2.265,6.665,9.188,7.765,10.935l-2.459,3.3c-0.971-2.005-3.364-6.017-5.306-9.123v31.64
		h-4.012v-31.9c-2.264,7.571-5.306,14.947-8.476,19.411c-0.518-1.165-1.553-2.782-2.265-3.752c4.076-5.5,8.217-16.112,10.223-25.299
		h-8.929v-4.077h9.447V0l5.306,0.388c-0.065,0.388-0.453,0.712-1.294,0.841v13.2h7.7v4.077h-7.7V23.293z M748.628,28.34h-9.123
		c2.588,5.5,6.017,10.223,9.9,13.005c-0.971,0.777-2.329,2.265-2.977,3.3c-1.941-1.553-3.753-3.495-5.37-5.759V60.11h-4.141V57.78
		h-15.594v2.458h-4.012V39.016c-1.877,2.394-4.012,4.594-6.406,6.47c-0.583-0.906-1.941-2.458-2.718-3.235
		c4.724-3.624,8.217-8.477,10.806-13.911h-9.123v-3.753h10.74c0.712-1.811,1.294-3.623,1.877-5.499h-8.282v-3.624h9.253
		c0.388-1.618,0.712-3.3,1.035-4.918H712.07V6.858h13.005c0.388-2.264,0.647-4.529,0.906-6.794l5.5,0.777
		c-0.065,0.517-0.518,0.777-1.294,0.841c-0.194,1.683-0.453,3.429-0.712,5.176h17.6v3.688h-18.247
		c-0.323,1.618-0.647,3.3-1.035,4.918h17.6v3.624h-9.317c0.518,1.876,1.1,3.688,1.812,5.499h10.74V28.34z M723.587,28.34
		c-0.906,2.005-1.877,3.947-2.977,5.824h17.47c-0.971-1.812-1.941-3.818-2.782-5.824H723.587z M736.916,43.934v-6.212h-15.594v6.212
		H736.916z M721.323,54.222h15.594v-6.859h-15.594V54.222z M733.875,24.587c-0.582-1.811-1.165-3.623-1.618-5.499h-5.435
		c-0.518,1.876-1.1,3.688-1.747,5.499H733.875z"/>
	<path class="st0" d="M819.992,10.741c-0.064-1.423-0.259-8.477-0.388-10.094l6.665,0.26c-0.065,0.517-0.518,1.165-1.683,1.358
		c0,0.777,0,1.553,0.129,8.347c7.959-0.259,16.306-0.453,21.158-0.518v4.465c-5.499-0.129-13.328,0-21.028,0.26
		c0.129,5.046,0.259,9.705,0.453,13.264c0.646,2.135,0.776,4.076,0.776,6.794c0,2.071-0.193,4.465-0.646,6.276
		c-1.683,7.571-7.247,14.235-18.635,18.765c-0.842-1.1-2.265-2.718-3.301-3.688c9.9-3.559,15.206-8.93,16.823-15.077h-0.064
		c-1.359,1.941-3.753,3.43-6.665,3.43c-5.759,0-10.871-4.723-10.871-11.323c-0.065-6.859,5.5-12.099,11.646-12.099
		c2.33,0,4.724,0.841,6.018,2.005c0-1.1-0.129-5.435-0.259-8.217c-6.73,0.129-27.176,0.841-29.829,0.97l-0.129-4.27l14.752-0.388
		L819.992,10.741z M821.222,33.452c0-2.524,0-8.412-6.599-8.412c-4.465,0.065-7.636,3.495-7.7,8.218c0,4.529,3.43,7.505,7.182,7.505
		C818.698,40.763,821.222,37.204,821.222,33.452z"/>
	<path class="st0" d="M915.041,23.229c-5.823,2.005-12.876,3.235-19.541,4.012c2.006,3.494,5.953,8.346,10.676,10.158l-2.588,3.688
		c-0.906-0.453-2.589-1.23-3.753-1.941c-1.423-0.518-4.594-0.97-7.635-0.97c-0.906,0-1.812,0.064-2.653,0.129l-0.906-3.559
		c2.2-0.129,5.371,0,7.247,0.259c-1.747-1.876-3.817-4.659-5.112-7.312c-4.334,0.453-9.123,0.647-17.34,0.647
		c-3.171,0-6.73,0-9.641-0.065l-0.065-4.076c2.912,0.065,6.665,0.129,9.9,0.129c5.306,0,10.547,0,15.789-0.453
		c-0.713-2.005-1.748-5.693-2.523-8.606c-2.589,0.26-5.5,0.389-8.153,0.389c-3.495,0-7.958,0-11-0.129v-4.012
		c3.882,0.193,8.153,0.193,10.935,0.193c2.329,0,4.983-0.129,7.441-0.323c-0.582-2.977-1.23-6.535-1.747-10.159l6.665,0.065
		c0,0.777-0.582,1.23-1.748,1.423c0.389,2.782,0.842,5.759,1.359,8.282c6.082-0.582,12.618-1.876,17.341-3.752l1.1,4.012
		c-4.723,1.747-11.129,2.976-17.599,3.688c0.841,3.429,1.682,6.47,2.458,8.476c6.859-0.712,14.299-2.2,20.187-4.27L915.041,23.229z
		 M903.653,57.457c-3.559,0.259-7.829,0.389-14.234,0.389c-10.483-0.065-18.635-3.429-18.505-10.741
		c0.064-3.817,3.43-7.893,7.635-10.223l2.911,2.977c-3.752,2.006-5.952,4.723-5.952,7.183c0,4.594,5.693,6.599,13.911,6.665
		c4.853,0,9.964-0.26,14.363-0.583L903.653,57.457z"/>
	<path class="st0" d="M542.684,91.813h-14.105v40.504h-5.37V91.813h-14.105v-4.787h33.58V91.813z"/>
	<path class="st0" d="M578.528,120.799c0-1.811-0.54-3.289-1.618-4.432c-1.078-1.142-2.426-2.156-4.044-3.041
		c-1.618-0.884-3.376-1.715-5.273-2.491c-1.898-0.777-3.656-1.715-5.273-2.814c-1.617-1.1-2.966-2.459-4.044-4.077
		c-1.079-1.618-1.618-3.676-1.618-6.179c0-3.536,1.229-6.341,3.688-8.411c2.459-2.071,5.953-3.106,10.482-3.106
		c2.63,0,5.024,0.194,7.182,0.582c2.157,0.389,3.839,0.885,5.047,1.488l-1.618,4.788c-0.993-0.49-2.449-0.957-4.368-1.403
		c-1.92-0.444-4.088-0.668-6.503-0.668c-2.847,0-4.982,0.637-6.406,1.908c-1.423,1.273-2.135,2.772-2.135,4.497
		c0,1.683,0.539,3.084,1.618,4.206c1.078,1.122,2.426,2.125,4.044,3.009c1.618,0.885,3.375,1.758,5.273,2.62
		c1.898,0.863,3.656,1.866,5.273,3.009c1.618,1.144,2.965,2.514,4.044,4.109c1.078,1.596,1.618,3.581,1.618,5.952
		c0,1.941-0.346,3.688-1.035,5.241c-0.69,1.552-1.705,2.89-3.041,4.011c-1.338,1.123-2.955,1.985-4.853,2.589
		c-1.899,0.604-4.055,0.906-6.47,0.906c-3.235,0-5.91-0.249-8.023-0.745c-2.114-0.495-3.753-1.045-4.917-1.65l1.811-4.787
		c0.992,0.545,2.458,1.081,4.4,1.606c1.941,0.526,4.119,0.787,6.535,0.787c1.424,0,2.76-0.139,4.012-0.42
		c1.251-0.28,2.329-0.733,3.235-1.359c0.905-0.625,1.627-1.412,2.167-2.362C578.258,123.216,578.528,122.094,578.528,120.799z"/>
	<path class="st0" d="M627.183,87.025h5.176v30.216c0,2.717-0.356,5.068-1.067,7.052c-0.712,1.984-1.726,3.613-3.041,4.885
		c-1.316,1.272-2.902,2.211-4.755,2.814c-1.855,0.604-3.904,0.906-6.147,0.906c-5.349,0-9.382-1.207-12.099-3.623
		s-4.076-6.082-4.076-11v-31.25h5.37v28.728c0,2.286,0.227,4.216,0.68,5.791c0.453,1.575,1.132,2.846,2.038,3.817
		c0.906,0.97,2.038,1.672,3.397,2.103c1.359,0.432,2.944,0.647,4.755,0.647c3.494,0,5.995-0.959,7.505-2.879
		c1.51-1.919,2.264-5.079,2.264-9.479V87.025z"/>
	<path class="st0" d="M679.397,97.378c0,1.078-0.173,2.178-0.518,3.299c-0.346,1.123-0.863,2.168-1.553,3.138
		c-0.691,0.971-1.575,1.823-2.653,2.556c-1.079,0.734-2.352,1.295-3.817,1.683v0.259c1.294,0.217,2.533,0.582,3.72,1.1
		c1.186,0.517,2.232,1.229,3.138,2.135c0.906,0.906,1.638,2.006,2.2,3.3c0.56,1.294,0.841,2.826,0.841,4.594
		c0,2.329-0.485,4.346-1.456,6.049c-0.971,1.704-2.243,3.095-3.817,4.173c-1.575,1.079-3.376,1.876-5.402,2.394
		c-2.028,0.517-4.099,0.776-6.212,0.776c-0.734,0-1.596,0-2.588,0c-0.992,0-2.028-0.032-3.106-0.096
		c-1.078-0.065-2.157-0.152-3.235-0.26c-1.079-0.108-2.028-0.268-2.847-0.485v-44.58c1.595-0.259,3.45-0.473,5.565-0.646
		c2.113-0.172,4.421-0.259,6.923-0.259c1.682,0,3.397,0.14,5.144,0.42c1.747,0.281,3.332,0.82,4.756,1.618
		c1.423,0.799,2.598,1.909,3.526,3.332C678.933,93.301,679.397,95.136,679.397,97.378z M660.827,106.953
		c0.733,0,1.618-0.02,2.653-0.064c1.035-0.043,1.897-0.107,2.588-0.194c1.035-0.344,2.006-0.765,2.912-1.262
		c0.906-0.495,1.714-1.077,2.426-1.747c0.712-0.668,1.271-1.445,1.682-2.329c0.409-0.884,0.614-1.844,0.614-2.879
		c0-1.423-0.27-2.598-0.809-3.526c-0.539-0.927-1.262-1.672-2.167-2.233c-0.906-0.56-1.941-0.959-3.106-1.197
		c-1.165-0.236-2.352-0.356-3.559-0.356c-1.423,0-2.729,0.032-3.914,0.097c-1.187,0.064-2.082,0.161-2.685,0.291v15.399H660.827z
		 M664.386,128.176c1.38,0,2.717-0.161,4.011-0.485c1.294-0.324,2.437-0.841,3.43-1.552c0.992-0.713,1.779-1.585,2.362-2.621
		s0.873-2.265,0.873-3.688c0-1.768-0.356-3.191-1.068-4.27c-0.712-1.078-1.639-1.919-2.782-2.524
		c-1.143-0.604-2.426-1.013-3.849-1.23c-1.424-0.215-2.847-0.323-4.27-0.323h-5.629v16.24c0.301,0.087,0.733,0.152,1.294,0.194
		c0.56,0.044,1.165,0.087,1.811,0.129c0.647,0.044,1.315,0.076,2.006,0.097C663.264,128.166,663.868,128.176,664.386,128.176z"/>
	<path class="st0" d="M720.117,119.764h-16.61l-4.506,12.552h-5.37l17.146-46.003h2.458l17.211,46.003h-5.693L720.117,119.764z
		 M705.246,115.106h13.262l-5.022-13.781l-1.609-6.859h-0.065l-1.61,6.988L705.246,115.106z"/>
	<path class="st0" d="M753.609,111.354h-3.041v20.963h-5.37V87.025h5.37v21.093l2.912-0.906l15.205-20.187h6.211l-15.14,19.476
		l-2.717,2.135l3.3,2.588l16.564,21.093h-6.794L753.609,111.354z"/>
	<path class="st0" d="M794.628,87.025h5.37v45.291h-5.37V87.025z"/>
	<g>
		<path class="st1" d="M877.985,79.345c-0.459,1.966-2.142,3.43-4.162,3.43c-2.022,0-3.705-1.466-4.163-3.433
			c-3.16,1.73-5.356,5.68-5.356,12.437c0,9.45,9.519,20.73,9.519,20.73s9.516-11.278,9.516-20.73
			C883.339,85.026,881.143,81.073,877.985,79.345z"/>
		<path class="st1" d="M904.152,101.907c-1.889,0.429-3.886-0.516-4.771-2.415c-0.885-1.904-0.361-4.128,1.133-5.416
			c-2.869-2.22-7.226-2.558-13.033,0.396c-8.123,4.131-13.658,18.02-13.658,18.02s13.858,4.023,21.982-0.109
			C901.61,109.431,904.047,105.635,904.152,101.907z"/>
		<path class="st1" d="M843.494,101.907c1.887,0.429,3.882-0.516,4.77-2.415c0.885-1.904,0.359-4.128-1.132-5.416
			c2.866-2.22,7.224-2.558,13.032,0.396c8.121,4.131,13.659,18.02,13.659,18.02s-13.859,4.023-21.984-0.109
			C846.036,109.431,843.599,105.635,843.494,101.907z"/>
		<path class="st1" d="M888.441,139.935c-0.692-1.888-0.104-4.094,1.558-5.298c1.663-1.204,3.844-1.001,5.289,0.347
			c1.659-3.305,1.317-7.861-2.358-13.416c-5.141-7.772-19.103-11.381-19.103-11.381s-1.691,14.942,3.448,22.715
			C880.948,138.452,884.905,140.394,888.441,139.935z"/>
		<path class="st1" d="M859.205,139.935c0.69-1.888,0.104-4.094-1.557-5.298c-1.663-1.204-3.845-1.001-5.289,0.347
			c-1.659-3.305-1.317-7.861,2.358-13.416c5.14-7.772,19.103-11.381,19.103-11.381s1.69,14.942-3.449,22.715
			C866.697,138.452,862.74,140.394,859.205,139.935z"/>
		<path class="st2" d="M877.474,83.069c-0.402,1.726-1.877,3.01-3.651,3.01s-3.25-1.286-3.651-3.012
			c-2.774,1.517-4.699,4.983-4.699,10.909c0,8.291,8.351,18.185,8.351,18.185s8.349-9.894,8.349-18.185
			C882.172,88.052,880.245,84.585,877.474,83.069z"/>
		<path class="st2" d="M900.428,102.861c-1.659,0.375-3.408-0.452-4.184-2.12c-0.776-1.669-0.317-3.62,0.993-4.751
			c-2.517-1.947-6.339-2.244-11.433,0.348c-7.125,3.623-11.98,15.808-11.98,15.808s12.156,3.528,19.283-0.097
			C898.198,109.461,900.338,106.131,900.428,102.861z"/>
		<path class="st2" d="M847.219,102.861c1.655,0.375,3.406-0.452,4.184-2.12c0.775-1.669,0.314-3.62-0.994-4.751
			c2.514-1.947,6.339-2.244,11.433,0.348c7.123,3.623,11.981,15.808,11.981,15.808s-12.157,3.528-19.284-0.097
			C849.448,109.461,847.309,106.131,847.219,102.861z"/>
		<path class="st2" d="M886.646,136.22c-0.607-1.657-0.091-3.593,1.367-4.649s3.372-0.879,4.64,0.305
			c1.455-2.899,1.155-6.897-2.068-11.771c-4.509-6.818-16.757-9.984-16.757-9.984s-1.484,13.108,3.025,19.926
			C880.074,134.918,883.544,136.622,886.646,136.22z"/>
		<path class="st2" d="M860.999,136.22c0.606-1.657,0.092-3.593-1.367-4.649s-3.372-0.879-4.639,0.305
			c-1.455-2.899-1.156-6.897,2.067-11.771c4.509-6.818,16.758-9.984,16.758-9.984s1.483,13.108-3.025,19.926
			C867.571,134.918,864.101,136.622,860.999,136.22z"/>
		<polygon class="st1" points="870.522,118.673 869.276,118.056 877.12,100.669 878.366,101.286 		"/>
		<path class="st1" d="M879.358,100.9c0.039,0.931-0.647,1.72-1.538,1.764c-0.889,0.043-1.643-0.675-1.685-1.607
			c-0.04-0.931,0.647-1.72,1.538-1.764C878.56,99.249,879.315,99.968,879.358,100.9z"/>
		<path class="st1" d="M871.511,118.285c0.044,0.931-0.644,1.72-1.535,1.764c-0.892,0.043-1.646-0.675-1.686-1.607
			c-0.043-0.931,0.644-1.72,1.536-1.764C870.717,116.635,871.471,117.354,871.511,118.285z"/>
		<polygon class="st1" points="865.671,114.165 865.122,112.841 881.975,105.176 882.522,106.5 		"/>
		<path class="st1" d="M883.856,105.97c-0.069,0.93-0.845,1.623-1.734,1.553c-0.889-0.074-1.55-0.885-1.481-1.815
			c0.067-0.93,0.843-1.626,1.732-1.552C883.261,104.229,883.927,105.041,883.856,105.97z"/>
		<path class="st1" d="M867.007,113.636c-0.071,0.929-0.846,1.622-1.735,1.549c-0.889-0.07-1.551-0.882-1.484-1.812
			c0.07-0.929,0.845-1.625,1.734-1.552C866.411,111.894,867.074,112.706,867.007,113.636z"/>
		<polygon class="st1" points="881.837,114.426 865.218,106.22 865.808,104.915 882.426,113.121 		"/>
		<path class="st1" d="M882.206,115.462c-0.892,0.041-1.646-0.676-1.685-1.609c-0.043-0.929,0.644-1.718,1.535-1.763
			c0.892-0.042,1.645,0.676,1.686,1.608C883.784,114.627,883.098,115.416,882.206,115.462z"/>
		<path class="st1" d="M865.59,107.252c-0.892,0.044-1.646-0.673-1.685-1.606c-0.044-0.932,0.644-1.721,1.535-1.763
			c0.892-0.046,1.645,0.673,1.686,1.605C867.168,106.421,866.478,107.209,865.59,107.252z"/>
		<polygon class="st1" points="876.853,118.774 869.527,101.143 870.792,100.568 878.119,118.2 		"/>
		<path class="st1" d="M877.362,120.169c-0.889-0.072-1.553-0.884-1.483-1.813c0.069-0.93,0.845-1.624,1.734-1.551
			c0.889,0.072,1.551,0.883,1.481,1.813C879.026,119.548,878.25,120.242,877.362,120.169z"/>
		<path class="st1" d="M870.036,102.539c-0.889-0.074-1.554-0.885-1.484-1.815c0.07-0.93,0.845-1.623,1.734-1.551
			c0.889,0.072,1.551,0.884,1.484,1.813C871.699,101.916,870.925,102.61,870.036,102.539z"/>
		<path class="st1" d="M873.822,106.094c1.889,0,3.421,1.602,3.421,3.578c0,1.976-1.532,3.578-3.421,3.578
			c-1.889,0-3.421-1.602-3.421-3.578C870.401,107.696,871.933,106.094,873.822,106.094z"/>
	</g>
	<path class="st0" d="M962.529,120.799c0-1.811-0.54-3.289-1.617-4.432c-1.079-1.142-2.426-2.156-4.044-3.041
		c-1.618-0.884-3.376-1.715-5.273-2.491c-1.898-0.777-3.656-1.715-5.274-2.814c-1.618-1.1-2.966-2.459-4.044-4.077
		c-1.078-1.618-1.617-3.676-1.617-6.179c0-3.536,1.23-6.341,3.688-8.411c2.458-2.071,5.953-3.106,10.482-3.106
		c2.63,0,5.025,0.194,7.182,0.582c2.156,0.389,3.839,0.885,5.047,1.488l-1.618,4.788c-0.993-0.49-2.449-0.957-4.368-1.403
		c-1.92-0.444-4.088-0.668-6.502-0.668c-2.847,0-4.982,0.637-6.406,1.908c-1.423,1.273-2.135,2.772-2.135,4.497
		c0,1.683,0.539,3.084,1.618,4.206c1.077,1.122,2.426,2.125,4.044,3.009c1.618,0.885,3.374,1.758,5.273,2.62
		c1.897,0.863,3.656,1.866,5.273,3.009c1.618,1.144,2.965,2.514,4.044,4.109c1.078,1.596,1.618,3.581,1.618,5.952
		c0,1.941-0.346,3.688-1.035,5.241c-0.69,1.552-1.704,2.89-3.041,4.011c-1.338,1.123-2.955,1.985-4.853,2.589
		c-1.898,0.604-4.055,0.906-6.47,0.906c-3.235,0-5.91-0.249-8.024-0.745c-2.113-0.495-3.752-1.045-4.917-1.65l1.811-4.787
		c0.992,0.545,2.459,1.081,4.401,1.606c1.94,0.526,4.118,0.787,6.534,0.787c1.423,0,2.76-0.139,4.012-0.42
		c1.25-0.28,2.329-0.733,3.235-1.359c0.906-0.625,1.627-1.412,2.168-2.362C962.259,123.216,962.529,122.094,962.529,120.799z"/>
	<path class="st0" d="M1011.185,87.025h5.176v30.216c0,2.717-0.357,5.068-1.068,7.052c-0.712,1.984-1.725,3.613-3.041,4.885
		c-1.316,1.272-2.902,2.211-4.755,2.814c-1.856,0.604-3.905,0.906-6.146,0.906c-5.349,0-9.383-1.207-12.099-3.623
		c-2.718-2.416-4.076-6.082-4.076-11v-31.25h5.37v28.728c0,2.286,0.227,4.216,0.679,5.791c0.453,1.575,1.133,2.846,2.038,3.817
		c0.905,0.97,2.037,1.672,3.396,2.103c1.359,0.432,2.943,0.647,4.755,0.647c3.494,0,5.995-0.959,7.505-2.879
		c1.51-1.919,2.265-5.079,2.265-9.479V87.025z"/>
	<path class="st0" d="M1044.505,111.354h-3.041v20.963h-5.37V87.025h5.37v21.093l2.911-0.906l15.205-20.187h6.212l-15.14,19.476
		l-2.718,2.135l3.3,2.588l16.563,21.093h-6.794L1044.505,111.354z"/>
	<path class="st0" d="M1085.526,87.025h5.371v45.291h-5.371V87.025z"/>
</g>
</svg>
