<svg width="800" height="130" xmlns="http://www.w3.org/2000/svg">
  <rect x="0" y="0" width="354.2765143892131" height="30" fill="#8993be" />
  <rect x="354.2765143892131" y="0" width="144.0933789494868" height="30" fill="#f1e05a" />
  <rect x="498.3698933386999" y="0" width="105.53431273898168" height="30" fill="#e34c26" />
  <rect x="603.9042060776816" y="0" width="86.29502918092172" height="30" fill="#ffac45" />
  <rect x="690.1992352586033" y="0" width="61.42080901589857" height="30" fill="#3572A5" />
  <rect x="751.6200442745019" y="0" width="48.379955725498085" height="30" fill="#563d7c" />
  <line x1="177.13825719460655" y1="30" x2="177.13825719460655" y2="40" stroke="#666666" stroke-width="1" />
  <text x="177.13825719460655" y="55" text-anchor="middle" font-family="Arial" font-size="16" fill="#000000">● PHP 44.28%</text>
  <circle cx="137.13825719460655" cy="50" r="5" fill="#8993be" />
  <line x1="426.3232038639565" y1="30" x2="426.3232038639565" y2="40" stroke="#666666" stroke-width="1" />
  <text x="426.3232038639565" y="55" text-anchor="middle" font-family="Arial" font-size="16" fill="#000000">● JavaScript 18.01%</text>
  <circle cx="386.3232038639565" cy="50" r="5" fill="#f1e05a" />
  <line x1="551.1370497081907" y1="30" x2="551.1370497081907" y2="40" stroke="#666666" stroke-width="1" />
  <text x="551.1370497081907" y="55" text-anchor="middle" font-family="Arial" font-size="16" fill="#000000">● HTML 13.19%</text>
  <circle cx="511.1370497081907" cy="50" r="5" fill="#e34c26" />
  <line x1="647.0517206681425" y1="30" x2="647.0517206681425" y2="40" stroke="#666666" stroke-width="1" />
  <text x="647.0517206681425" y="80" text-anchor="middle" font-family="Arial" font-size="16" fill="#000000">● Swift 10.79%</text>
  <circle cx="607.0517206681425" cy="75" r="5" fill="#ffac45" />
  <line x1="720.9096397665526" y1="30" x2="720.9096397665526" y2="40" stroke="#666666" stroke-width="1" />
  <text x="720.9096397665526" y="80" text-anchor="middle" font-family="Arial" font-size="16" fill="#000000">● Python 7.68%</text>
  <circle cx="680.9096397665526" cy="75" r="5" fill="#3572A5" />
  <line x1="775.8100221372509" y1="30" x2="775.8100221372509" y2="40" stroke="#666666" stroke-width="1" />
  <text x="775.8100221372509" y="80" text-anchor="middle" font-family="Arial" font-size="16" fill="#000000">● CSS 6.05%</text>
  <circle cx="735.8100221372509" cy="75" r="5" fill="#563d7c" />
</svg>