<?xml version="1.0" encoding="utf-8"?>
<!-- Generator: Adobe Illustrator 29.3.1, SVG Export Plug-In . SVG Version: 9.03 Build 55982)  -->
<svg version="1.1" id="Ebene_1" xmlns="http://www.w3.org/2000/svg" xmlns:xlink="http://www.w3.org/1999/xlink" x="0px" y="0px"
	 viewBox="0 0 91 100" style="enable-background:new 0 0 91 100;" xml:space="preserve">
<style type="text/css">
	.st0{fill:#FFFFFF;}
	.st1{fill:#F2487B;}
</style>
<g id="XMLID_115_">
	<g id="XMLID_102_">
		<path id="XMLID_163_" class="st0" d="M17.947,34.855c0,0-3.026,11.082,6.579,13.371c8.63,1.898,9.503-9.093,9.503-9.093
			l-1.301-5.066c0,0,7.665,5.763,14.328-1.026c3.809-6.824,0.701-12.297-1.569-13.469c-2.269-1.172-7.95-2.787-8.9-1.568
			c2.229-2.11,6.486-9.917,0.65-14.882c-5.777-4.959-15.206-1.624-15.925,5.894c-4.023-5.189-8.5-8.231-15.327-3.467
			c-6.326,4.515-2.293,15.244,4.165,16.198C3.697,24.239-2.142,28.883,2.648,36.07C7.354,42.891,17.693,36.259,17.947,34.855z"/>
	</g>
	<g id="XMLID_104_">
		<path id="XMLID_148_" class="st0" d="M28.936,81.93c0,0,3.119,8.168,10.048,5.26c6.155-2.71,1.755-9.855,1.755-9.855l-3.075-2.528
			c0,0,7.298,0.098,8.342-7.066c-0.725-5.903-5.093-7.87-7.013-7.571c-1.921,0.299-6.136,1.858-6.172,3.034
			c0.422-2.297-0.469-9.007-6.285-9.436c-5.777-0.452-10.072,5.832-7.137,10.774c-4.802-1.381-8.92-1.239-10.974,4.754
			c-1.859,5.615,5.439,10.396,9.835,8.081c-2.845,4.431-4.347,9.907,1.823,12.171C26.037,91.626,29.411,82.907,28.936,81.93z"/>
	</g>
	<g id="XMLID_150_">
		<path id="XMLID_156_" class="st0" d="M67.675,39.224c0,0-1.704,8.687,5.806,9.907c6.739,0.975,6.794-7.521,6.794-7.521
			L78.99,37.79c0,0,6.214,3.999,10.954-1.592c2.545-5.458-0.151-9.49-1.96-10.263c-1.81-0.773-6.266-1.697-6.928-0.707
			c1.595-1.746,4.429-7.985-0.334-11.474c-4.718-3.487-11.777-0.395-11.908,5.422c-3.382-3.762-6.994-5.85-11.973-1.805
			c-4.609,3.824-0.908,11.844,4.109,12.215c-4.82,2.278-9.048,6.174-4.964,11.429C59.984,45.994,67.558,40.318,67.675,39.224z"/>
	</g>
	<g id="XMLID_4_">
		<path id="XMLID_84_" class="st1" d="M89.539,26.907c-1.201-1.704-2.973-2.807-4.991-3.106c-0.912-0.135-1.926-0.115-2.976,0.051
			c0.573-0.799,1.018-1.626,1.299-2.431c1.385-3.96-0.856-8.36-4.995-9.806c-1.999-0.699-4.139-0.613-6.027,0.242
			c-1.899,0.86-3.316,2.394-3.988,4.318c-0.156,0.445-0.277,0.93-0.363,1.443c-0.431-0.557-0.896-1.044-1.381-1.446
			c-1.57-1.301-3.575-1.883-5.646-1.637c-2.058,0.244-3.935,1.276-5.285,2.906c-1.351,1.63-2.016,3.667-1.871,5.735
			c0.145,2.08,1.09,3.941,2.66,5.242c0.665,0.552,1.482,1.034,2.392,1.423c-0.385,0.15-0.747,0.317-1.081,0.5
			c-3.687,2.004-5.175,6.415-3.317,9.831c0.905,1.666,2.456,2.847,4.368,3.326c1.889,0.476,3.909,0.204,5.686-0.762
			c0.785-0.426,1.571-1.013,2.308-1.716c-0.026,0.787,0.021,1.541,0.145,2.221c0.672,3.704,3.738,6.335,7.126,6.334
			c0.388,0,0.781-0.034,1.174-0.106c3.827-0.694,6.331-4.619,5.582-8.747c-0.111-0.611-0.301-1.259-0.558-1.914
			c0.821,0.36,1.643,0.607,2.416,0.722c4.147,0.615,8.051-2.411,8.694-6.748C91.219,30.687,90.733,28.601,89.539,26.907z
			 M89.539,32.579c-0.532,3.58-3.722,6.081-7.121,5.582c-1.204-0.179-2.564-0.747-3.831-1.598c-0.268-0.18-0.628-0.15-0.864,0.073
			c-0.235,0.224-0.283,0.581-0.116,0.859c0.697,1.156,1.189,2.39,1.386,3.475c0.612,3.376-1.392,6.578-4.468,7.137
			c-3.07,0.557-6.076-1.736-6.689-5.113c-0.207-1.141-0.166-2.539,0.116-3.935c0.063-0.317-0.1-0.635-0.395-0.768
			c-0.092-0.042-0.189-0.061-0.285-0.061c-0.212,0-0.418,0.097-0.552,0.274c-0.973,1.285-2.198,2.384-3.36,3.016
			c-1.471,0.799-3.137,1.024-4.688,0.635c-1.532-0.384-2.77-1.324-3.488-2.644c-1.493-2.747-0.253-6.314,2.762-7.954
			c0.812-0.441,1.829-0.785,2.941-0.994c0.323-0.061,0.559-0.34,0.564-0.669c0.006-0.328-0.221-0.616-0.541-0.688
			c-1.58-0.354-3.057-1.03-4.053-1.855c-1.276-1.057-2.044-2.574-2.162-4.272c-0.119-1.711,0.433-3.4,1.556-4.755
			c1.123-1.356,2.679-2.213,4.382-2.414c1.691-0.204,3.324,0.271,4.6,1.328c0.809,0.67,1.589,1.678,2.196,2.841
			c0.149,0.284,0.472,0.428,0.786,0.349c0.311-0.08,0.526-0.364,0.52-0.685c-0.024-1.158,0.125-2.233,0.432-3.11
			c0.547-1.564,1.701-2.811,3.252-3.513c1.562-0.707,3.336-0.777,4.999-0.197c3.417,1.195,5.277,4.803,4.145,8.043
			c-0.413,1.182-1.295,2.491-2.42,3.591c-0.231,0.226-0.275,0.582-0.105,0.858c0.169,0.275,0.507,0.397,0.813,0.292
			c1.555-0.532,3.192-0.726,4.491-0.535c1.639,0.244,3.081,1.143,4.063,2.535C89.395,29.107,89.797,30.837,89.539,32.579z"/>
		<path id="XMLID_110_" class="st1" d="M75.299,24.687c-0.642-0.59-1.395-1.06-2.224-1.369l0.764-2.276
			c0.012,0,0.023,0.002,0.034,0.002c0.541-0.026,0.958-0.486,0.932-1.027c-0.026-0.541-0.486-0.958-1.027-0.932
			c-0.541,0.026-0.958,0.486-0.932,1.027c0.016,0.327,0.192,0.607,0.447,0.773l-0.758,2.259c-0.68-0.19-1.401-0.277-2.145-0.241
			c-0.365,0.018-0.719,0.073-1.065,0.146c-0.238,0.047-0.975,0.276-0.975,0.276c-1.11,0.416-2.08,1.111-2.824,2l-1.817-1.404
			c0.004-0.011,0.01-0.021,0.013-0.032c0.152-0.52-0.145-1.064-0.665-1.217s-1.064,0.145-1.217,0.665
			c-0.153,0.52,0.145,1.064,0.665,1.217c0.314,0.092,0.636,0.018,0.877-0.169l1.799,1.391c-0.484,0.686-0.838,1.465-1.041,2.3
			l-1.162-0.009c-0.001,0-0.001,0-0.002,0c-0.156,0-0.283,0.126-0.284,0.282c-0.001,0.157,0.125,0.285,0.282,0.286l1.053,0.008
			c-0.068,0.442-0.098,0.895-0.076,1.359c0.05,1.017,0.324,1.971,0.769,2.817l-2.034,1.098c-0.009-0.008-0.015-0.017-0.024-0.025
			c-0.413-0.35-1.032-0.299-1.382,0.114c-0.35,0.413-0.299,1.032,0.114,1.382c0.413,0.35,1.032,0.299,1.382-0.114
			c0.212-0.25,0.275-0.574,0.202-0.87l2.029-1.095c0.155,0.243,0.326,0.474,0.51,0.695l-0.707,0.648
			c-0.115,0.106-0.124,0.285-0.018,0.401c0.056,0.061,0.133,0.093,0.209,0.093c0.068,0,0.137-0.025,0.191-0.074l0.714-0.655
			c0.167,0.169,0.343,0.329,0.526,0.48l-0.513,0.533c-0.109,0.113-0.105,0.292,0.008,0.401c0.055,0.053,0.126,0.079,0.197,0.079
			c0.074,0,0.149-0.029,0.205-0.087l0.554-0.576c1.181,0.815,2.625,1.268,4.166,1.193c0.369-0.018,0.729-0.066,1.079-0.141
			l0.628,2.146c-0.009,0.007-0.02,0.011-0.029,0.018c-0.429,0.331-0.508,0.947-0.177,1.375c0.331,0.429,0.947,0.508,1.375,0.177
			c0.429-0.331,0.508-0.947,0.177-1.375c-0.2-0.259-0.504-0.388-0.808-0.379l-0.616-2.104c1.177-0.356,2.212-1.024,3.02-1.901
			l0.455,0.399c0.054,0.047,0.12,0.071,0.187,0.071c0.079,0,0.157-0.033,0.213-0.097c0.104-0.118,0.092-0.297-0.026-0.4
			l-0.462-0.405c0.078-0.101,0.152-0.205,0.225-0.31l0.498,0.345c0.049,0.034,0.106,0.051,0.161,0.051
			c0.09,0,0.178-0.043,0.233-0.122c0.089-0.129,0.057-0.305-0.072-0.395l-0.517-0.358c0.56-0.975,0.888-2.095,0.901-3.285
			l2.125,0.088c0.003,0.011,0.004,0.022,0.008,0.033c0.176,0.512,0.734,0.785,1.246,0.608c0.512-0.176,0.784-0.734,0.608-1.246
			c-0.176-0.512-0.734-0.784-1.246-0.608c-0.31,0.107-0.529,0.354-0.618,0.645l-2.142-0.089c-0.117-1.618-0.801-3.066-1.843-4.165
			L75.299,24.687z M69.245,23.065 M72.804,24.127c2.072,0.782,3.605,2.697,3.812,5.019l-1.979-0.082
			c-0.218-1.413-1.181-2.566-2.458-3.073L72.804,24.127z M70.432,23.753c0.634-0.031,1.249,0.042,1.832,0.2l-0.627,1.866
			c-0.355-0.085-0.727-0.124-1.11-0.106c-1.109,0.054-2.089,0.563-2.772,1.335l-1.551-1.199
			C67.229,24.64,68.728,23.836,70.432,23.753z M64.802,29.961c-0.066-1.356,0.336-2.625,1.057-3.661l1.554,1.201
			c-0.446,0.677-0.693,1.494-0.65,2.365c0.028,0.583,0.185,1.129,0.437,1.617l-1.725,0.931
			C65.087,31.675,64.845,30.847,64.802,29.961z M67.027,34.281c-0.172-0.138-0.335-0.284-0.49-0.441l-0.385-0.417
			c-0.137-0.167-0.271-0.338-0.39-0.52l1.734-0.935c0.758,1.062,2.021,1.731,3.418,1.663c0.143-0.007,0.283-0.022,0.422-0.044
			l0.553,1.888c-0.287,0.058-0.578,0.102-0.879,0.116c-1.297,0.063-2.512-0.306-3.521-0.97L67.027,34.281z M75.588,33.028
			c-0.054,0.078-0.108,0.157-0.166,0.233l-0.367,0.432c-0.702,0.757-1.597,1.334-2.617,1.643l-0.551-1.882
			c1.64-0.507,2.808-2.042,2.791-3.82l1.96,0.081c-0.007,1.025-0.28,1.992-0.753,2.836L75.588,33.028z"/>
	</g>
	<g id="XMLID_17_">
		<path id="XMLID_133_" class="st1" d="M39.711,75.549c0.892-0.092,1.729-0.282,2.458-0.564c3.914-1.511,5.813-6.069,4.234-10.158
			c-1.58-4.09-6.051-6.186-9.964-4.674h0.001c-0.86,0.332-1.733,0.85-2.563,1.512c0.104-0.978,0.083-1.916-0.07-2.756
			c-0.75-4.128-4.862-6.85-9.182-6.066c-2.083,0.378-3.903,1.509-5.124,3.184c-1.228,1.685-1.704,3.718-1.339,5.724
			c0.084,0.464,0.217,0.946,0.396,1.434c-0.65-0.272-1.294-0.467-1.915-0.577c-2.006-0.356-4.038,0.126-5.719,1.361
			c-1.67,1.227-2.794,3.051-3.164,5.136c-0.371,2.085,0.056,4.184,1.201,5.911c1.153,1.738,2.892,2.891,4.9,3.248
			c0.851,0.151,1.799,0.168,2.783,0.057c-0.261,0.321-0.494,0.645-0.695,0.968c-1.069,1.716-1.458,3.716-1.097,5.632
			c0.365,1.937,1.452,3.555,3.061,4.557c1.086,0.676,2.301,0.998,3.521,0.998c2.489,0,5.001-1.338,6.49-3.728
			c0.472-0.758,0.866-1.655,1.16-2.63c0.365,0.697,0.778,1.33,1.221,1.861c1.295,1.552,3.072,2.548,5.005,2.804
			c1.953,0.258,3.831-0.267,5.287-1.481c2.987-2.492,3.229-7.141,0.541-10.363C40.743,76.462,40.258,75.992,39.711,75.549z
			 M39.712,86.238c-1.154,0.962-2.65,1.377-4.217,1.172c-1.587-0.211-3.051-1.034-4.124-2.319c-0.743-0.891-1.397-2.127-1.841-3.479
			c-0.101-0.308-0.404-0.505-0.722-0.474c-0.322,0.03-0.58,0.278-0.623,0.598c-0.212,1.596-0.735,3.157-1.435,4.28
			c-1.815,2.914-5.448,3.939-8.103,2.286c-1.276-0.795-2.14-2.087-2.433-3.638c-0.296-1.573,0.027-3.223,0.912-4.643
			c0.488-0.784,1.202-1.584,2.067-2.315c0.251-0.212,0.318-0.571,0.161-0.86c-0.124-0.228-0.36-0.361-0.608-0.361
			c-0.067,0-0.135,0.01-0.202,0.03c-1.548,0.471-3.165,0.612-4.44,0.386c-1.63-0.29-3.047-1.23-3.987-2.649
			c-0.948-1.429-1.301-3.171-0.992-4.904c0.308-1.733,1.239-3.246,2.621-4.262c1.372-1.008,3.026-1.404,4.656-1.113
			c1.032,0.183,2.208,0.675,3.312,1.386c0.269,0.173,0.624,0.138,0.856-0.084c0.231-0.223,0.278-0.576,0.114-0.852
			c-0.592-0.994-0.992-2.003-1.158-2.918c-0.296-1.63,0.093-3.285,1.096-4.66c1.01-1.386,2.52-2.323,4.252-2.637
			c3.558-0.643,6.959,1.575,7.572,4.951c0.223,1.232,0.102,2.805-0.333,4.317c-0.09,0.311,0.048,0.642,0.332,0.798
			c0.283,0.155,0.637,0.095,0.852-0.147c1.09-1.23,2.417-2.207,3.642-2.68h0.001c3.2-1.237,6.867,0.504,8.172,3.882
			c1.304,3.377-0.24,7.131-3.441,8.367c-1.136,0.438-2.598,0.615-4.12,0.5c-0.319-0.024-0.621,0.178-0.715,0.489
			c-0.095,0.311,0.04,0.645,0.323,0.804c1.177,0.662,2.214,1.493,2.919,2.339C42.276,80.461,42.113,84.235,39.712,86.238z"/>
		<path id="XMLID_136_" class="st1" d="M35.07,66.477c-0.217,0.245-0.286,0.569-0.219,0.866l-1.907,0.98
			c-1.511-2.267-4.175-3.339-6.722-2.929l-0.458-2.356c0.01-0.006,0.021-0.009,0.031-0.015c0.457-0.29,0.593-0.896,0.304-1.353
			c-0.29-0.457-0.896-0.593-1.353-0.304c-0.458,0.29-0.593,0.896-0.304,1.353c0.175,0.277,0.466,0.433,0.77,0.452l0.455,2.339
			c-0.686,0.171-1.356,0.45-1.984,0.848c-1.66,1.052-2.707,2.711-3.036,4.507l-2.273-0.325c-0.002-0.011-0.002-0.023-0.004-0.034
			c-0.124-0.527-0.651-0.854-1.179-0.731c-0.527,0.124-0.854,0.651-0.731,1.179c0.124,0.527,0.651,0.854,1.179,0.731
			c0.319-0.075,0.562-0.298,0.679-0.579l2.251,0.322c-0.143,1.451,0.176,2.958,1.015,4.283c0.545,0.86,1.254,1.555,2.059,2.071
			l-1.228,1.959c-0.011-0.003-0.021-0.008-0.033-0.01c-0.532-0.101-1.045,0.249-1.146,0.781c-0.101,0.532,0.249,1.045,0.781,1.146
			c0.532,0.101,1.045-0.249,1.146-0.781c0.061-0.322-0.045-0.635-0.254-0.856l1.225-1.953c2.08,1.099,4.676,1.088,6.801-0.258
			c0.312-0.198,0.601-0.417,0.869-0.654l1.605,1.557c-0.005,0.011-0.012,0.019-0.016,0.03c-0.21,0.499,0.025,1.074,0.524,1.284
			c0.499,0.21,1.074-0.025,1.284-0.524c0.21-0.499-0.025-1.074-0.524-1.284c-0.302-0.127-0.63-0.089-0.89,0.069l-1.574-1.527
			c2.005-2.103,2.477-5.329,1.028-7.95l1.892-0.972c0.008,0.008,0.015,0.018,0.023,0.025c0.406,0.359,1.025,0.32,1.384-0.086
			c0.359-0.406,0.32-1.025-0.086-1.384C36.048,66.032,35.429,66.071,35.07,66.477z M32.177,68.716l-1.762,0.905
			c-0.887-1.122-2.293-1.649-3.654-1.461l-0.375-1.93C28.573,65.888,30.852,66.798,32.177,68.716z M24.137,67.075
			c0.536-0.34,1.108-0.58,1.692-0.73l0.376,1.932c-0.351,0.102-0.694,0.251-1.017,0.456c-0.938,0.594-1.539,1.52-1.753,2.528
			l-1.941-0.278C21.789,69.426,22.696,67.988,24.137,67.075z M24.097,77.054c-0.701-0.451-1.32-1.052-1.795-1.802
			c-0.726-1.147-1.003-2.449-0.887-3.706l1.944,0.278c-0.054,0.809,0.135,1.642,0.601,2.378c0.313,0.493,0.718,0.891,1.178,1.191
			L24.097,77.054z M30.479,77.087c-1.84,1.165-4.081,1.183-5.89,0.251l1.046-1.669c1.183,0.549,2.612,0.509,3.794-0.24
			c0.121-0.077,0.236-0.159,0.345-0.246l1.412,1.37C30.965,76.744,30.733,76.926,30.479,77.087z M31.597,76.161l-1.407-1.365
			c1.176-1.25,1.435-3.162,0.543-4.7l1.745-0.896C33.757,71.493,33.351,74.316,31.597,76.161z"/>
	</g>
	<g id="XMLID_3_">
		<path id="XMLID_143_" class="st1" d="M13.244,39.178c1.063-0.446,2.147-1.097,3.184-1.905c-0.136,1.006-0.171,1.98-0.1,2.87
			c0.409,5.154,4.457,9.097,9.18,9.096c0.223,0,0.449-0.009,0.675-0.027c5.004-0.398,8.727-5.114,8.298-10.513
			c-0.063-0.799-0.223-1.656-0.469-2.529c1.009,0.569,2.031,0.992,3.009,1.239c2.552,0.645,5.211,0.211,7.488-1.224
			c2.263-1.425,3.878-3.669,4.547-6.319c0.67-2.65,0.315-5.392-1.001-7.721c-1.323-2.344-3.456-3.99-6.008-4.634
			c-1.154-0.292-2.464-0.397-3.827-0.319c0.838-0.951,1.516-1.956,1.982-2.954C42.491,9.33,40.181,3.391,35.053,1
			c-5.129-2.391-11.162-0.344-13.452,4.565c-0.257,0.551-0.475,1.158-0.651,1.805c-0.482-0.771-1.016-1.457-1.587-2.035
			C15.56,1.48,9.188,1.576,5.16,5.553c-1.945,1.92-3.061,4.449-3.143,7.123c-0.082,2.69,0.891,5.203,2.739,7.076
			c0.784,0.794,1.769,1.519,2.89,2.136c-0.514,0.143-1.001,0.311-1.454,0.502c-4.993,2.097-7.474,7.569-5.529,12.199
			c0.947,2.255,2.787,3.972,5.18,4.835C8.212,40.276,10.839,40.189,13.244,39.178z M6.449,37.741
			c-1.917-0.691-3.387-2.057-4.138-3.845c-1.563-3.72,0.489-8.143,4.573-9.858c1.101-0.462,2.451-0.772,3.905-0.897
			c0.422-0.036,0.761-0.365,0.811-0.786c0.049-0.421-0.204-0.819-0.606-0.953c-1.983-0.658-3.793-1.717-4.965-2.905
			c-1.502-1.522-2.292-3.569-2.225-5.765c0.068-2.213,0.995-4.31,2.612-5.906c3.325-3.282,8.562-3.388,11.675-0.235
			c0.951,0.962,1.822,2.358,2.454,3.93c0.155,0.386,0.559,0.612,0.965,0.55c0.41-0.063,0.723-0.399,0.756-0.813
			c0.118-1.488,0.449-2.85,0.956-3.938c1.873-4.014,6.843-5.674,11.076-3.7c4.235,1.976,6.156,6.849,4.285,10.863
			c-0.684,1.465-1.985,3.032-3.571,4.299c-0.326,0.26-0.429,0.713-0.246,1.088c0.182,0.376,0.603,0.574,1.008,0.48
			c2.067-0.483,4.194-0.52,5.836-0.106c2.074,0.524,3.81,1.866,4.89,3.78c1.088,1.928,1.381,4.202,0.825,6.404
			s-1.895,4.065-3.767,5.245c-1.859,1.171-4.024,1.527-6.098,1.003c-1.522-0.384-3.195-1.289-4.712-2.546
			c-0.324-0.268-0.788-0.275-1.119-0.017c-0.331,0.257-0.439,0.71-0.26,1.088c0.746,1.574,1.218,3.222,1.332,4.641
			c0.351,4.416-2.636,8.269-6.658,8.589c-4.026,0.313-7.581-3.014-7.932-7.43c-0.118-1.493,0.114-3.282,0.656-5.038
			c0.123-0.399-0.046-0.829-0.406-1.038c-0.14-0.081-0.294-0.12-0.447-0.12c-0.243,0-0.482,0.099-0.655,0.286
			c-1.415,1.525-3.13,2.778-4.705,3.439C10.559,38.367,8.393,38.442,6.449,37.741z"/>
		<path id="XMLID_146_" class="st1" d="M30.303,28.791c1.035-1.265,1.728-2.826,1.92-4.549l2.718,0.387
			c0.003,0.015,0.002,0.029,0.006,0.044c0.16,0.68,0.841,1.102,1.522,0.942c0.68-0.16,1.102-0.841,0.942-1.522
			c-0.16-0.68-0.841-1.102-1.522-0.942c-0.412,0.097-0.726,0.386-0.876,0.748l-2.739-0.39c0.099-3.515-1.908-6.631-4.896-8.099
			l1.275-2.824c0.015,0.001,0.029,0.006,0.044,0.007c0.698,0.036,1.293-0.501,1.329-1.199c0.036-0.698-0.501-1.293-1.199-1.329
			c-0.698-0.036-1.293,0.501-1.329,1.199c-0.022,0.422,0.168,0.804,0.474,1.05l-1.265,2.803c-0.849-0.332-1.764-0.537-2.723-0.586
			c-2.533-0.13-4.873,0.837-6.559,2.483l-2.152-2.038c0.006-0.014,0.015-0.025,0.021-0.039c0.263-0.648-0.049-1.386-0.697-1.649
			c-0.648-0.263-1.386,0.049-1.649,0.697c-0.263,0.648,0.049,1.386,0.697,1.649c0.392,0.159,0.815,0.105,1.148-0.104l2.131,2.018
			c-1.233,1.422-2.021,3.248-2.125,5.269c-0.068,1.313,0.161,2.573,0.625,3.718l-2.754,1.147c-0.01-0.011-0.017-0.024-0.027-0.035
			c-0.485-0.503-1.286-0.518-1.79-0.033c-0.503,0.485-0.518,1.286-0.033,1.79c0.485,0.503,1.286,0.518,1.79,0.032
			c0.121-0.117,0.205-0.255,0.269-0.399l0.032-0.069c0.074-0.2,0.1-0.414,0.07-0.623l1.623-0.676l1.053-0.439l0.071-0.03
			c0.216,0.427,0.471,0.833,0.752,1.217l0.46,0.58c1.504,1.732,3.679,2.877,6.146,3.004c0.476,0.025,0.945,0.009,1.404-0.041
			l0.53,2.838c-0.013,0.008-0.027,0.012-0.04,0.02c-0.593,0.37-0.775,1.15-0.405,1.743c0.37,0.593,1.15,0.775,1.743,0.405
			c0.593-0.37,0.775-1.15,0.405-1.743c-0.223-0.359-0.598-0.564-0.989-0.59l-0.519-2.782c1.282-0.251,2.466-0.789,3.487-1.54
			l0.622-0.5c0.155-0.137,0.305-0.281,0.45-0.429L30.303,28.791z M23.139,30.905c-2.808-0.145-5.181-1.798-6.392-4.129l2.347-0.978
			c0.837,1.461,2.372,2.484,4.175,2.577c0.184,0.009,0.367,0.008,0.547-0.002l0.466,2.496
			C23.907,30.906,23.527,30.925,23.139,30.905z M29.462,28.074l-0.667-0.568c-0.167-0.143-0.418-0.124-0.561,0.045
			c-0.143,0.167-0.123,0.418,0.045,0.561l0.648,0.552c-0.117,0.117-0.237,0.23-0.361,0.339l-0.668-0.716
			c-0.15-0.161-0.402-0.169-0.562-0.02c-0.161,0.15-0.17,0.402-0.019,0.562l0.624,0.668c-0.865,0.613-1.859,1.054-2.931,1.266
			l-0.464-2.488c2.171-0.439,3.87-2.261,4.077-4.546l2.507,0.357C30.964,25.596,30.363,26.964,29.462,28.074z M26.923,16.414
			c2.56,1.272,4.282,3.929,4.247,6.938l-2.531-0.361c-0.098-1.843-1.186-3.447-2.76-4.264L26.923,16.414z M23.925,15.628
			c0.819,0.042,1.599,0.215,2.327,0.493l-1.045,2.316c-0.445-0.155-0.918-0.253-1.411-0.279c-1.431-0.074-2.755,0.453-3.732,1.356
			l-1.837-1.74C19.697,16.353,21.726,15.515,23.925,15.628z M17.724,18.307l1.84,1.743c-0.66,0.812-1.083,1.83-1.14,2.953
			c-0.039,0.753,0.092,1.474,0.353,2.133l-2.336,0.973c-0.402-0.998-0.606-2.093-0.547-3.236
			C15.984,21.124,16.664,19.545,17.724,18.307z"/>
	</g>
	<path id="XMLID_10_" class="st1" d="M37.349,45.385c4.988,8.832,13.046,21.883,19.171,30.153h-9.883
		c-0.892,0-1.654,0.646-1.799,1.527l0,0c-0.181,1.099,0.657,2.101,1.771,2.118l13.133,0.201
		c6.294,7.326,12.064,13.277,18.811,19.898c1.033,1.014,2.711,0.946,3.655-0.152l0,0c0.878-1.022,0.794-2.553-0.196-3.467
		c-4.768-4.407-12.332-11.527-19.272-20.125c0.163-8.504,0.937-20.557,2.942-28.01c0.244-0.906-0.277-1.84-1.183-2.084l-0.021-0.006
		c-0.918-0.247-1.857,0.303-2.1,1.222c-2.393,9.059-3.294,19.599-3.682,23.698c-5.127-6.317-12.045-17.123-17.574-27.059
		c-0.546-0.982-1.746-1.39-2.771-0.93l0,0C37.197,42.886,36.727,44.283,37.349,45.385z"/>
</g>
</svg>
